<svg width="45" height="45" viewBox="0 0 45 45" fill="none" xmlns="http://www.w3.org/2000/svg">
<path d="M22.5 16.875L33.75 28.125M33.75 16.875L22.5 28.125M18.75 9.375C17.8183 9.37505 16.9199 9.72195 16.23 10.3481L4.365 21.1106C4.17135 21.2864 4.0166 21.5007 3.91071 21.7398C3.80481 21.9789 3.75011 22.2375 3.75011 22.4991C3.75011 22.7606 3.80481 23.0192 3.91071 23.2583C4.0166 23.4974 4.17135 23.7117 4.365 23.8875L16.23 34.6519C16.9199 35.278 17.8183 35.6249 18.75 35.625H37.5C38.4946 35.625 39.4484 35.2299 40.1517 34.5266C40.8549 33.8234 41.25 32.8696 41.25 31.875V13.125C41.25 12.1304 40.8549 11.1766 40.1517 10.4733C39.4484 9.77009 38.4946 9.375 37.5 9.375H18.75Z" stroke="#15BB70" stroke-width="2" stroke-linecap="round" stroke-linejoin="round"/>
</svg>
