<svg width="50" height="50" viewBox="0 0 50 50" fill="none" xmlns="http://www.w3.org/2000/svg">
<path d="M12.5 33.3333C10.5625 33.3333 9.59375 33.3333 8.8 33.1208C7.7401 32.8372 6.77355 32.2795 5.99752 31.5038C5.2215 30.7281 4.66334 29.7619 4.37917 28.7021C4.16667 27.9063 4.16667 26.9375 4.16667 25C4.16667 23.0625 4.16667 22.0937 4.37917 21.2979C4.66366 20.2385 5.22196 19.2727 5.99796 18.4974C6.77397 17.7221 7.74035 17.1647 8.8 16.8812C9.59375 16.6667 10.5625 16.6667 12.5 16.6667M25 33.3333H37.5C39.4375 33.3333 40.4063 33.3333 41.2 33.1208C42.2599 32.8372 43.2264 32.2795 44.0025 31.5038C44.7785 30.7281 45.3367 29.7619 45.6208 28.7021C45.8333 27.9063 45.8333 26.9375 45.8333 25C45.8333 23.0625 45.8333 22.0937 45.6208 21.2979C45.3363 20.2385 44.778 19.2727 44.002 18.4974C43.226 17.7221 42.2597 17.1647 41.2 16.8812C40.4083 16.6667 39.4375 16.6667 37.5 16.6667H25M14.5833 6.25H18.75M18.75 6.25H22.9167M18.75 6.25V43.75M18.75 43.75H14.5833M18.75 43.75H22.9167" stroke="#F8B415" stroke-width="2.5" stroke-linecap="round" stroke-linejoin="round"/>
</svg>
