<svg width="25" height="24" viewBox="0 0 25 24" fill="none" xmlns="http://www.w3.org/2000/svg">
<path d="M18.4758 18.9008L15.3721 6.02034C15.2334 5.44254 14.9121 4.92961 14.4594 4.56341C14.0067 4.19721 13.4488 3.99885 12.8747 4H12.1228C11.5491 3.99945 10.9918 4.19808 10.5396 4.56423C10.0875 4.93039 9.76649 5.44299 9.62786 6.02034L6.52424 18.9008C6.47081 19.1289 6.50651 19.3697 6.62355 19.5706C6.74059 19.7715 6.92947 19.9163 7.14901 19.9733C7.36855 20.0304 7.60094 19.9951 7.79548 19.8751C7.99002 19.7552 8.13094 19.5603 8.1875 19.333L9.31064 14.6708H15.6894L16.8125 19.333C16.8691 19.5603 17.01 19.7552 17.2045 19.8751C17.3991 19.9951 17.6314 20.0304 17.851 19.9733C18.0705 19.9163 18.2594 19.7715 18.3765 19.5706C18.4935 19.3697 18.5292 19.1289 18.4758 18.9008ZM9.73932 12.8923L11.292 6.4525C11.3383 6.26005 11.4453 6.08916 11.596 5.96703C11.7466 5.84489 11.9324 5.77852 12.1236 5.77847H12.8764C13.0676 5.77852 13.2534 5.84489 13.404 5.96703C13.5547 6.08916 13.6617 6.26005 13.708 6.4525L15.2598 12.8923H9.73932Z" fill="#F8B415"/>
</svg>
