<svg width="25" height="24" viewBox="0 0 25 24" fill="none" xmlns="http://www.w3.org/2000/svg">
<path d="M19.25 6.93751L18.26 5.78579C17.4206 4.90415 16.4106 4.20252 15.2914 3.7236C14.1722 3.24468 12.9673 2.99849 11.75 3.00001C6.78125 3.00001 2.75 7.03126 2.75 12C2.75 16.9688 6.78125 21 11.75 21C13.6114 20.9999 15.427 20.4229 16.947 19.3484C18.467 18.2739 19.6166 16.7548 20.2377 15" stroke="#727B8A" stroke-width="2" stroke-miterlimit="10" stroke-linecap="round"/>
<path d="M22.2499 4.56666V9.7501C22.2499 9.94901 22.1709 10.1398 22.0303 10.2804C21.8896 10.4211 21.6988 10.5001 21.4999 10.5001H16.3165C15.6481 10.5001 15.3134 9.69244 15.7859 9.21994L20.9698 4.03604C21.4423 3.5626 22.2499 3.89822 22.2499 4.56666Z" fill="#727B8A"/>
</svg>
